<?xml version="1.0" encoding="UTF-8" standalone="no"?><svg xmlns="http://www.w3.org/2000/svg" xmlns:xlink="http://www.w3.org/1999/xlink" contentScriptType="application/ecmascript" contentStyleType="text/css" height="252px" preserveAspectRatio="none" style="width:439px;height:252px;" version="1.1" viewBox="0 0 439 252" width="439px" zoomAndPan="magnify"><defs><filter height="300%" id="f1lv6dm2a0h2m5" width="300%" x="-1" y="-1"><feGaussianBlur result="blurOut" stdDeviation="2.0"/><feColorMatrix in="blurOut" result="blurOut2" type="matrix" values="0 0 0 0 0 0 0 0 0 0 0 0 0 0 0 0 0 0 .4 0"/><feOffset dx="4.0" dy="4.0" in="blurOut2" result="blurOut3"/><feBlend in="SourceGraphic" in2="blurOut3" mode="normal"/></filter></defs><g><!--class Figure--><rect fill="#FEFECE" filter="url(#f1lv6dm2a0h2m5)" height="48" id="Figure" style="stroke: #A80036; stroke-width: 1.5;" width="71" x="201.5" y="8"/><ellipse cx="216.5" cy="24" fill="#ADD1B2" rx="11" ry="11" style="stroke: #A80036; stroke-width: 1.0;"/><path d="M219.4688,29.6406 Q218.8906,29.9375 218.25,30.0781 Q217.6094,30.2344 216.9063,30.2344 Q214.4063,30.2344 213.0781,28.5938 Q211.7656,26.9375 211.7656,23.8125 Q211.7656,20.6875 213.0781,19.0313 Q214.4063,17.375 216.9063,17.375 Q217.6094,17.375 218.25,17.5313 Q218.9063,17.6875 219.4688,17.9844 L219.4688,20.7031 Q218.8438,20.125 218.25,19.8594 Q217.6563,19.5781 217.0313,19.5781 Q215.6875,19.5781 215,20.6563 Q214.3125,21.7188 214.3125,23.8125 Q214.3125,25.9063 215,26.9844 Q215.6875,28.0469 217.0313,28.0469 Q217.6563,28.0469 218.25,27.7813 Q218.8438,27.5 219.4688,26.9219 L219.4688,29.6406 Z "/><text fill="#000000" font-family="sans-serif" font-size="12" lengthAdjust="spacingAndGlyphs" textLength="39" x="230.5" y="28.1543">Figure</text><line style="stroke: #A80036; stroke-width: 1.5;" x1="202.5" x2="271.5" y1="40" y2="40"/><line style="stroke: #A80036; stroke-width: 1.5;" x1="202.5" x2="271.5" y1="48" y2="48"/><!--class Point--><rect fill="#FEFECE" filter="url(#f1lv6dm2a0h2m5)" height="99.2188" id="Point" style="stroke: #A80036; stroke-width: 1.5;" width="92" x="6" y="130"/><ellipse cx="33.6" cy="146" fill="#ADD1B2" rx="11" ry="11" style="stroke: #A80036; stroke-width: 1.0;"/><path d="M36.5688,151.6406 Q35.9906,151.9375 35.35,152.0781 Q34.7094,152.2344 34.0063,152.2344 Q31.5063,152.2344 30.1781,150.5938 Q28.8656,148.9375 28.8656,145.8125 Q28.8656,142.6875 30.1781,141.0313 Q31.5063,139.375 34.0063,139.375 Q34.7094,139.375 35.35,139.5313 Q36.0063,139.6875 36.5688,139.9844 L36.5688,142.7031 Q35.9438,142.125 35.35,141.8594 Q34.7563,141.5781 34.1313,141.5781 Q32.7875,141.5781 32.1,142.6563 Q31.4125,143.7188 31.4125,145.8125 Q31.4125,147.9063 32.1,148.9844 Q32.7875,150.0469 34.1313,150.0469 Q34.7563,150.0469 35.35,149.7813 Q35.9438,149.5 36.5688,148.9219 L36.5688,151.6406 Z "/><text fill="#000000" font-family="sans-serif" font-size="12" lengthAdjust="spacingAndGlyphs" textLength="32" x="50.4" y="150.1543">Point</text><line style="stroke: #A80036; stroke-width: 1.5;" x1="7" x2="97" y1="162" y2="162"/><rect fill="none" height="6" style="stroke: #C82930; stroke-width: 1.0;" width="6" x="14" y="170.9023"/><text fill="#000000" font-family="sans-serif" font-size="11" lengthAdjust="spacingAndGlyphs" textLength="39" x="26" y="176.2104">x: float</text><rect fill="none" height="6" style="stroke: #C82930; stroke-width: 1.0;" width="6" x="14" y="183.707"/><text fill="#000000" font-family="sans-serif" font-size="11" lengthAdjust="spacingAndGlyphs" textLength="39" x="26" y="189.0151">y: float</text><line style="stroke: #A80036; stroke-width: 1.0;" x1="7" x2="97" y1="195.6094" y2="195.6094"/><ellipse cx="17" cy="207.5117" fill="#84BE84" rx="3" ry="3" style="stroke: #038048; stroke-width: 1.0;"/><text fill="#000000" font-family="sans-serif" font-size="11" lengthAdjust="spacingAndGlyphs" textLength="66" x="26" y="209.8198">getX(): float</text><ellipse cx="17" cy="220.3164" fill="#84BE84" rx="3" ry="3" style="stroke: #038048; stroke-width: 1.0;"/><text fill="#000000" font-family="sans-serif" font-size="11" lengthAdjust="spacingAndGlyphs" textLength="66" x="26" y="222.6245">getY(): float</text><!--class Circle--><rect fill="#FEFECE" filter="url(#f1lv6dm2a0h2m5)" height="86.4141" id="Circle" style="stroke: #A80036; stroke-width: 1.5;" width="123" x="175.5" y="136.5"/><ellipse cx="216.15" cy="152.5" fill="#ADD1B2" rx="11" ry="11" style="stroke: #A80036; stroke-width: 1.0;"/><path d="M219.1188,158.1406 Q218.5406,158.4375 217.9,158.5781 Q217.2594,158.7344 216.5563,158.7344 Q214.0563,158.7344 212.7281,157.0938 Q211.4156,155.4375 211.4156,152.3125 Q211.4156,149.1875 212.7281,147.5313 Q214.0563,145.875 216.5563,145.875 Q217.2594,145.875 217.9,146.0313 Q218.5563,146.1875 219.1188,146.4844 L219.1188,149.2031 Q218.4938,148.625 217.9,148.3594 Q217.3063,148.0781 216.6813,148.0781 Q215.3375,148.0781 214.65,149.1563 Q213.9625,150.2188 213.9625,152.3125 Q213.9625,154.4063 214.65,155.4844 Q215.3375,156.5469 216.6813,156.5469 Q217.3063,156.5469 217.9,156.2813 Q218.4938,156 219.1188,155.4219 L219.1188,158.1406 Z "/><text fill="#000000" font-family="sans-serif" font-size="12" lengthAdjust="spacingAndGlyphs" textLength="34" x="235.85" y="156.6543">Circle</text><line style="stroke: #A80036; stroke-width: 1.5;" x1="176.5" x2="297.5" y1="168.5" y2="168.5"/><rect fill="none" height="6" style="stroke: #C82930; stroke-width: 1.0;" width="6" x="183.5" y="177.4023"/><text fill="#000000" font-family="sans-serif" font-size="11" lengthAdjust="spacingAndGlyphs" textLength="69" x="195.5" y="182.7104">radius: float</text><line style="stroke: #A80036; stroke-width: 1.0;" x1="176.5" x2="297.5" y1="189.3047" y2="189.3047"/><ellipse cx="186.5" cy="201.207" fill="#84BE84" rx="3" ry="3" style="stroke: #038048; stroke-width: 1.0;"/><text fill="#000000" font-family="sans-serif" font-size="11" lengthAdjust="spacingAndGlyphs" textLength="97" x="195.5" y="203.5151">getRadius(): float</text><ellipse cx="186.5" cy="214.0117" fill="#84BE84" rx="3" ry="3" style="stroke: #038048; stroke-width: 1.0;"/><text fill="#000000" font-family="sans-serif" font-size="11" lengthAdjust="spacingAndGlyphs" textLength="97" x="195.5" y="216.3198">getCenter(): float</text><!--class Sphere--><rect fill="#FEFECE" filter="url(#f1lv6dm2a0h2m5)" height="124.8281" id="Sphere" style="stroke: #A80036; stroke-width: 1.5;" width="94" x="334" y="117"/><ellipse cx="356.65" cy="133" fill="#ADD1B2" rx="11" ry="11" style="stroke: #A80036; stroke-width: 1.0;"/><path d="M359.6188,138.6406 Q359.0406,138.9375 358.4,139.0781 Q357.7594,139.2344 357.0563,139.2344 Q354.5563,139.2344 353.2281,137.5938 Q351.9156,135.9375 351.9156,132.8125 Q351.9156,129.6875 353.2281,128.0313 Q354.5563,126.375 357.0563,126.375 Q357.7594,126.375 358.4,126.5313 Q359.0563,126.6875 359.6188,126.9844 L359.6188,129.7031 Q358.9938,129.125 358.4,128.8594 Q357.8063,128.5781 357.1813,128.5781 Q355.8375,128.5781 355.15,129.6563 Q354.4625,130.7188 354.4625,132.8125 Q354.4625,134.9063 355.15,135.9844 Q355.8375,137.0469 357.1813,137.0469 Q357.8063,137.0469 358.4,136.7813 Q358.9938,136.5 359.6188,135.9219 L359.6188,138.6406 Z "/><text fill="#000000" font-family="sans-serif" font-size="12" lengthAdjust="spacingAndGlyphs" textLength="45" x="372.35" y="137.1543">Sphere</text><line style="stroke: #A80036; stroke-width: 1.5;" x1="335" x2="427" y1="149" y2="149"/><rect fill="none" height="6" style="stroke: #C82930; stroke-width: 1.0;" width="6" x="342" y="157.9023"/><text fill="#000000" font-family="sans-serif" font-size="11" lengthAdjust="spacingAndGlyphs" textLength="39" x="354" y="163.2104">x: float</text><rect fill="none" height="6" style="stroke: #C82930; stroke-width: 1.0;" width="6" x="342" y="170.707"/><text fill="#000000" font-family="sans-serif" font-size="11" lengthAdjust="spacingAndGlyphs" textLength="39" x="354" y="176.0151">y: float</text><rect fill="none" height="6" style="stroke: #C82930; stroke-width: 1.0;" width="6" x="342" y="183.5117"/><text fill="#000000" font-family="sans-serif" font-size="11" lengthAdjust="spacingAndGlyphs" textLength="38" x="354" y="188.8198">z: float</text><line style="stroke: #A80036; stroke-width: 1.0;" x1="335" x2="427" y1="195.4141" y2="195.4141"/><ellipse cx="345" cy="207.3164" fill="#84BE84" rx="3" ry="3" style="stroke: #038048; stroke-width: 1.0;"/><text fill="#000000" font-family="sans-serif" font-size="11" lengthAdjust="spacingAndGlyphs" textLength="66" x="354" y="209.6245">getX(): float</text><ellipse cx="345" cy="220.1211" fill="#84BE84" rx="3" ry="3" style="stroke: #038048; stroke-width: 1.0;"/><text fill="#000000" font-family="sans-serif" font-size="11" lengthAdjust="spacingAndGlyphs" textLength="66" x="354" y="222.4292">getY(): float</text><ellipse cx="345" cy="232.9258" fill="#84BE84" rx="3" ry="3" style="stroke: #038048; stroke-width: 1.0;"/><text fill="#000000" font-family="sans-serif" font-size="11" lengthAdjust="spacingAndGlyphs" textLength="68" x="354" y="235.2339">getZ(): float</text><!--link Figure to Point--><path d="M191.6,68.71 C163.18,91.06 126.67,119.77 98.12,142.23 " fill="none" id="Figure-Point" style="stroke: #A80036; stroke-width: 1.0;"/><polygon fill="none" points="187.64,62.92,207.69,56.05,196.29,73.92,187.64,62.92" style="stroke: #A80036; stroke-width: 1.0;"/><!--link Figure to Circle--><path d="M237,76.1 C237,95.09 237,117.32 237,136.21 " fill="none" id="Figure-Circle" style="stroke: #A80036; stroke-width: 1.0;"/><polygon fill="none" points="230,76.05,237,56.05,244,76.05,230,76.05" style="stroke: #A80036; stroke-width: 1.0;"/><!--link Figure to Sphere--><path d="M274.05,70.44 C292.27,88.85 314.44,111.24 333.85,130.86 " fill="none" id="Figure-Sphere" style="stroke: #A80036; stroke-width: 1.0;"/><polygon fill="none" points="268.91,75.19,259.82,56.05,278.86,65.35,268.91,75.19" style="stroke: #A80036; stroke-width: 1.0;"/><!--link Point to Circle--><path d="M98.21,179.5 C117.53,179.5 140.48,179.5 162.1,179.5 " fill="none" id="Point-Circle" style="stroke: #A80036; stroke-width: 1.0;"/><polygon fill="#A80036" points="175.34,179.5,169.34,175.5,163.34,179.5,169.34,183.5,175.34,179.5" style="stroke: #A80036; stroke-width: 1.0;"/><text fill="#000000" font-family="sans-serif" font-size="13" lengthAdjust="spacingAndGlyphs" textLength="41" x="116.25" y="172.5669">center</text><!--
@startuml


class Figure {
  
}

class Point {
  -x: float
  -y: float
  - -
  +getX(): float
  +getY(): float
}

class Circle {
  -radius: float
  - -
  +getRadius(): float
  +getCenter(): float
}

class Sphere {
  -x: float
  -y: float
  -z: float
  - -
  +getX(): float
  +getY(): float
  +getZ(): float  
}

Figure <|- - Point
Figure <|- - Circle
Figure <|- - Sphere

Point -*  Circle : center


@enduml

PlantUML version 1.2018.13(Mon Nov 26 19:11:51 EET 2018)
(GPL source distribution)
Java Runtime: OpenJDK Runtime Environment
JVM: OpenJDK 64-Bit Server VM
Java Version: 11.0.11+9
Operating System: Linux
OS Version: 5.4.0-1047-azure
Default Encoding: UTF-8
Language: en
Country: null
--></g></svg>