<?xml version="1.0" encoding="UTF-8" standalone="no"?><svg xmlns="http://www.w3.org/2000/svg" xmlns:xlink="http://www.w3.org/1999/xlink" contentScriptType="application/ecmascript" contentStyleType="text/css" height="385px" preserveAspectRatio="none" style="width:140px;height:385px;" version="1.1" viewBox="0 0 140 385" width="140px" zoomAndPan="magnify"><defs><filter height="300%" id="f3bunlmvr87ny" width="300%" x="-1" y="-1"><feGaussianBlur result="blurOut" stdDeviation="2.0"/><feColorMatrix in="blurOut" result="blurOut2" type="matrix" values="0 0 0 0 0 0 0 0 0 0 0 0 0 0 0 0 0 0 .4 0"/><feOffset dx="4.0" dy="4.0" in="blurOut2" result="blurOut3"/><feBlend in="SourceGraphic" in2="blurOut3" mode="normal"/></filter></defs><g><!--class Point--><rect fill="#FEFECE" filter="url(#f3bunlmvr87ny)" height="99.2188" id="Point" style="stroke: #A80036; stroke-width: 1.5;" width="92" x="21.5" y="8"/><ellipse cx="49.1" cy="24" fill="#ADD1B2" rx="11" ry="11" style="stroke: #A80036; stroke-width: 1.0;"/><path d="M52.0688,29.6406 Q51.4906,29.9375 50.85,30.0781 Q50.2094,30.2344 49.5063,30.2344 Q47.0063,30.2344 45.6781,28.5938 Q44.3656,26.9375 44.3656,23.8125 Q44.3656,20.6875 45.6781,19.0313 Q47.0063,17.375 49.5063,17.375 Q50.2094,17.375 50.85,17.5313 Q51.5063,17.6875 52.0688,17.9844 L52.0688,20.7031 Q51.4438,20.125 50.85,19.8594 Q50.2563,19.5781 49.6313,19.5781 Q48.2875,19.5781 47.6,20.6563 Q46.9125,21.7188 46.9125,23.8125 Q46.9125,25.9063 47.6,26.9844 Q48.2875,28.0469 49.6313,28.0469 Q50.2563,28.0469 50.85,27.7813 Q51.4438,27.5 52.0688,26.9219 L52.0688,29.6406 Z "/><text fill="#000000" font-family="sans-serif" font-size="12" lengthAdjust="spacingAndGlyphs" textLength="32" x="65.9" y="28.1543">Point</text><line style="stroke: #A80036; stroke-width: 1.5;" x1="22.5" x2="112.5" y1="40" y2="40"/><rect fill="none" height="6" style="stroke: #C82930; stroke-width: 1.0;" width="6" x="29.5" y="48.9023"/><text fill="#000000" font-family="sans-serif" font-size="11" lengthAdjust="spacingAndGlyphs" textLength="39" x="41.5" y="54.2104">x: float</text><rect fill="none" height="6" style="stroke: #C82930; stroke-width: 1.0;" width="6" x="29.5" y="61.707"/><text fill="#000000" font-family="sans-serif" font-size="11" lengthAdjust="spacingAndGlyphs" textLength="39" x="41.5" y="67.0151">y: float</text><line style="stroke: #A80036; stroke-width: 1.0;" x1="22.5" x2="112.5" y1="73.6094" y2="73.6094"/><ellipse cx="32.5" cy="85.5117" fill="#84BE84" rx="3" ry="3" style="stroke: #038048; stroke-width: 1.0;"/><text fill="#000000" font-family="sans-serif" font-size="11" lengthAdjust="spacingAndGlyphs" textLength="66" x="41.5" y="87.8198">getX(): float</text><ellipse cx="32.5" cy="98.3164" fill="#84BE84" rx="3" ry="3" style="stroke: #038048; stroke-width: 1.0;"/><text fill="#000000" font-family="sans-serif" font-size="11" lengthAdjust="spacingAndGlyphs" textLength="66" x="41.5" y="100.6245">getY(): float</text><!--class Circle--><rect fill="#FEFECE" filter="url(#f3bunlmvr87ny)" height="73.6094" id="Circle" style="stroke: #A80036; stroke-width: 1.5;" width="123" x="6" y="167"/><ellipse cx="46.65" cy="183" fill="#ADD1B2" rx="11" ry="11" style="stroke: #A80036; stroke-width: 1.0;"/><path d="M49.6188,188.6406 Q49.0406,188.9375 48.4,189.0781 Q47.7594,189.2344 47.0563,189.2344 Q44.5563,189.2344 43.2281,187.5938 Q41.9156,185.9375 41.9156,182.8125 Q41.9156,179.6875 43.2281,178.0313 Q44.5563,176.375 47.0563,176.375 Q47.7594,176.375 48.4,176.5313 Q49.0563,176.6875 49.6188,176.9844 L49.6188,179.7031 Q48.9938,179.125 48.4,178.8594 Q47.8063,178.5781 47.1813,178.5781 Q45.8375,178.5781 45.15,179.6563 Q44.4625,180.7188 44.4625,182.8125 Q44.4625,184.9063 45.15,185.9844 Q45.8375,187.0469 47.1813,187.0469 Q47.8063,187.0469 48.4,186.7813 Q48.9938,186.5 49.6188,185.9219 L49.6188,188.6406 Z "/><text fill="#000000" font-family="sans-serif" font-size="12" lengthAdjust="spacingAndGlyphs" textLength="34" x="66.35" y="187.1543">Circle</text><line style="stroke: #A80036; stroke-width: 1.5;" x1="7" x2="128" y1="199" y2="199"/><rect fill="none" height="6" style="stroke: #C82930; stroke-width: 1.0;" width="6" x="14" y="207.9023"/><text fill="#000000" font-family="sans-serif" font-size="11" lengthAdjust="spacingAndGlyphs" textLength="69" x="26" y="213.2104">radius: float</text><line style="stroke: #A80036; stroke-width: 1.0;" x1="7" x2="128" y1="219.8047" y2="219.8047"/><ellipse cx="17" cy="231.707" fill="#84BE84" rx="3" ry="3" style="stroke: #038048; stroke-width: 1.0;"/><text fill="#000000" font-family="sans-serif" font-size="11" lengthAdjust="spacingAndGlyphs" textLength="97" x="26" y="234.0151">getRadius(): float</text><!--class Sphere--><rect fill="#FEFECE" filter="url(#f3bunlmvr87ny)" height="73.6094" id="Sphere" style="stroke: #A80036; stroke-width: 1.5;" width="94" x="20.5" y="301"/><ellipse cx="43.15" cy="317" fill="#ADD1B2" rx="11" ry="11" style="stroke: #A80036; stroke-width: 1.0;"/><path d="M46.1188,322.6406 Q45.5406,322.9375 44.9,323.0781 Q44.2594,323.2344 43.5563,323.2344 Q41.0563,323.2344 39.7281,321.5938 Q38.4156,319.9375 38.4156,316.8125 Q38.4156,313.6875 39.7281,312.0313 Q41.0563,310.375 43.5563,310.375 Q44.2594,310.375 44.9,310.5313 Q45.5563,310.6875 46.1188,310.9844 L46.1188,313.7031 Q45.4938,313.125 44.9,312.8594 Q44.3063,312.5781 43.6813,312.5781 Q42.3375,312.5781 41.65,313.6563 Q40.9625,314.7188 40.9625,316.8125 Q40.9625,318.9063 41.65,319.9844 Q42.3375,321.0469 43.6813,321.0469 Q44.3063,321.0469 44.9,320.7813 Q45.4938,320.5 46.1188,319.9219 L46.1188,322.6406 Z "/><text fill="#000000" font-family="sans-serif" font-size="12" lengthAdjust="spacingAndGlyphs" textLength="45" x="58.85" y="321.1543">Sphere</text><line style="stroke: #A80036; stroke-width: 1.5;" x1="21.5" x2="113.5" y1="333" y2="333"/><rect fill="none" height="6" style="stroke: #C82930; stroke-width: 1.0;" width="6" x="28.5" y="341.9023"/><text fill="#000000" font-family="sans-serif" font-size="11" lengthAdjust="spacingAndGlyphs" textLength="38" x="40.5" y="347.2104">z: float</text><line style="stroke: #A80036; stroke-width: 1.0;" x1="21.5" x2="113.5" y1="353.8047" y2="353.8047"/><ellipse cx="31.5" cy="365.707" fill="#84BE84" rx="3" ry="3" style="stroke: #038048; stroke-width: 1.0;"/><text fill="#000000" font-family="sans-serif" font-size="11" lengthAdjust="spacingAndGlyphs" textLength="68" x="40.5" y="368.0151">getZ(): float</text><!--link Point to Circle--><path d="M67.5,127.31 C67.5,140.93 67.5,154.72 67.5,166.72 " fill="none" id="Point-Circle" style="stroke: #A80036; stroke-width: 1.0;"/><polygon fill="none" points="60.5,127.02,67.5,107.02,74.5,127.02,60.5,127.02" style="stroke: #A80036; stroke-width: 1.0;"/><!--link Circle to Sphere--><path d="M67.5,261.38 C67.5,274.8 67.5,288.76 67.5,300.97 " fill="none" id="Circle-Sphere" style="stroke: #A80036; stroke-width: 1.0;"/><polygon fill="none" points="60.5,261.07,67.5,241.07,74.5,261.07,60.5,261.07" style="stroke: #A80036; stroke-width: 1.0;"/><!--
@startuml


class Point {
  -x: float
  -y: float
  - -
  +getX(): float
  +getY(): float
}

class Circle {
  -radius: float
  - -
  +getRadius(): float
}

class Sphere {
  -z: float
  - -
  +getZ(): float
}

Point  <|- - Circle
Circle <|- - Sphere


@enduml

PlantUML version 1.2018.13(Mon Nov 26 19:11:51 EET 2018)
(GPL source distribution)
Java Runtime: OpenJDK Runtime Environment
JVM: OpenJDK 64-Bit Server VM
Java Version: 11.0.11+9
Operating System: Linux
OS Version: 5.4.0-1047-azure
Default Encoding: UTF-8
Language: en
Country: null
--></g></svg>