<?xml version="1.0" encoding="UTF-8" standalone="no"?><svg xmlns="http://www.w3.org/2000/svg" xmlns:xlink="http://www.w3.org/1999/xlink" contentScriptType="application/ecmascript" contentStyleType="text/css" height="333px" preserveAspectRatio="none" style="width:417px;height:333px;" version="1.1" viewBox="0 0 417 333" width="417px" zoomAndPan="magnify"><defs><filter height="300%" id="f18jih24qgzv0d" width="300%" x="-1" y="-1"><feGaussianBlur result="blurOut" stdDeviation="2.0"/><feColorMatrix in="blurOut" result="blurOut2" type="matrix" values="0 0 0 0 0 0 0 0 0 0 0 0 0 0 0 0 0 0 .4 0"/><feOffset dx="4.0" dy="4.0" in="blurOut2" result="blurOut3"/><feBlend in="SourceGraphic" in2="blurOut3" mode="normal"/></filter></defs><g><!--class State--><rect fill="#FEFECE" filter="url(#f18jih24qgzv0d)" height="86.4141" id="State" style="stroke: #A80036; stroke-width: 1.5;" width="85" x="163.5" y="8"/><ellipse cx="187.05" cy="24" fill="#ADD1B2" rx="11" ry="11" style="stroke: #A80036; stroke-width: 1.0;"/><path d="M190.0188,29.6406 Q189.4406,29.9375 188.8,30.0781 Q188.1594,30.2344 187.4563,30.2344 Q184.9563,30.2344 183.6281,28.5938 Q182.3156,26.9375 182.3156,23.8125 Q182.3156,20.6875 183.6281,19.0313 Q184.9563,17.375 187.4563,17.375 Q188.1594,17.375 188.8,17.5313 Q189.4563,17.6875 190.0188,17.9844 L190.0188,20.7031 Q189.3938,20.125 188.8,19.8594 Q188.2063,19.5781 187.5813,19.5781 Q186.2375,19.5781 185.55,20.6563 Q184.8625,21.7188 184.8625,23.8125 Q184.8625,25.9063 185.55,26.9844 Q186.2375,28.0469 187.5813,28.0469 Q188.2063,28.0469 188.8,27.7813 Q189.3938,27.5 190.0188,26.9219 L190.0188,29.6406 Z "/><text fill="#000000" font-family="sans-serif" font-size="12" lengthAdjust="spacingAndGlyphs" textLength="34" x="202.95" y="28.1543">State</text><line style="stroke: #A80036; stroke-width: 1.5;" x1="164.5" x2="247.5" y1="40" y2="40"/><text fill="#000000" font-family="sans-serif" font-size="11" lengthAdjust="spacingAndGlyphs" textLength="48" x="169.5" y="54.2104">lives: int</text><text fill="#000000" font-family="sans-serif" font-size="11" lengthAdjust="spacingAndGlyphs" textLength="57" x="169.5" y="67.0151">points: int</text><text fill="#000000" font-family="sans-serif" font-size="11" lengthAdjust="spacingAndGlyphs" textLength="73" x="169.5" y="79.8198">moving: bool</text><line style="stroke: #A80036; stroke-width: 1.5;" x1="164.5" x2="247.5" y1="86.4141" y2="86.4141"/><!--class Wall--><rect fill="#FEFECE" filter="url(#f18jih24qgzv0d)" height="60.8047" id="Wall" style="stroke: #A80036; stroke-width: 1.5;" width="110" x="6" y="262"/><ellipse cx="44.85" cy="278" fill="#ADD1B2" rx="11" ry="11" style="stroke: #A80036; stroke-width: 1.0;"/><path d="M47.8188,283.6406 Q47.2406,283.9375 46.6,284.0781 Q45.9594,284.2344 45.2563,284.2344 Q42.7563,284.2344 41.4281,282.5938 Q40.1156,280.9375 40.1156,277.8125 Q40.1156,274.6875 41.4281,273.0313 Q42.7563,271.375 45.2563,271.375 Q45.9594,271.375 46.6,271.5313 Q47.2563,271.6875 47.8188,271.9844 L47.8188,274.7031 Q47.1938,274.125 46.6,273.8594 Q46.0063,273.5781 45.3813,273.5781 Q44.0375,273.5781 43.35,274.6563 Q42.6625,275.7188 42.6625,277.8125 Q42.6625,279.9063 43.35,280.9844 Q44.0375,282.0469 45.3813,282.0469 Q46.0063,282.0469 46.6,281.7813 Q47.1938,281.5 47.8188,280.9219 L47.8188,283.6406 Z "/><text fill="#000000" font-family="sans-serif" font-size="12" lengthAdjust="spacingAndGlyphs" textLength="25" x="64.15" y="282.1543">Wall</text><line style="stroke: #A80036; stroke-width: 1.5;" x1="7" x2="115" y1="294" y2="294"/><line style="stroke: #A80036; stroke-width: 1.5;" x1="7" x2="115" y1="302" y2="302"/><ellipse cx="17" cy="313.9023" fill="#84BE84" rx="3" ry="3" style="stroke: #038048; stroke-width: 1.0;"/><text fill="#000000" font-family="sans-serif" font-size="11" lengthAdjust="spacingAndGlyphs" textLength="84" x="26" y="316.2104">process(State)</text><!--class Banana--><rect fill="#FEFECE" filter="url(#f18jih24qgzv0d)" height="60.8047" id="Banana" style="stroke: #A80036; stroke-width: 1.5;" width="110" x="151" y="262"/><ellipse cx="179.5" cy="278" fill="#ADD1B2" rx="11" ry="11" style="stroke: #A80036; stroke-width: 1.0;"/><path d="M182.4688,283.6406 Q181.8906,283.9375 181.25,284.0781 Q180.6094,284.2344 179.9063,284.2344 Q177.4063,284.2344 176.0781,282.5938 Q174.7656,280.9375 174.7656,277.8125 Q174.7656,274.6875 176.0781,273.0313 Q177.4063,271.375 179.9063,271.375 Q180.6094,271.375 181.25,271.5313 Q181.9063,271.6875 182.4688,271.9844 L182.4688,274.7031 Q181.8438,274.125 181.25,273.8594 Q180.6563,273.5781 180.0313,273.5781 Q178.6875,273.5781 178,274.6563 Q177.3125,275.7188 177.3125,277.8125 Q177.3125,279.9063 178,280.9844 Q178.6875,282.0469 180.0313,282.0469 Q180.6563,282.0469 181.25,281.7813 Q181.8438,281.5 182.4688,280.9219 L182.4688,283.6406 Z "/><text fill="#000000" font-family="sans-serif" font-size="12" lengthAdjust="spacingAndGlyphs" textLength="48" x="196.5" y="282.1543">Banana</text><line style="stroke: #A80036; stroke-width: 1.5;" x1="152" x2="260" y1="294" y2="294"/><line style="stroke: #A80036; stroke-width: 1.5;" x1="152" x2="260" y1="302" y2="302"/><ellipse cx="162" cy="313.9023" fill="#84BE84" rx="3" ry="3" style="stroke: #038048; stroke-width: 1.0;"/><text fill="#000000" font-family="sans-serif" font-size="11" lengthAdjust="spacingAndGlyphs" textLength="84" x="171" y="316.2104">process(State)</text><!--class SupriseBox--><rect fill="#FEFECE" filter="url(#f18jih24qgzv0d)" height="60.8047" id="SupriseBox" style="stroke: #A80036; stroke-width: 1.5;" width="110" x="296" y="262"/><ellipse cx="315.05" cy="278" fill="#ADD1B2" rx="11" ry="11" style="stroke: #A80036; stroke-width: 1.0;"/><path d="M318.0188,283.6406 Q317.4406,283.9375 316.8,284.0781 Q316.1594,284.2344 315.4563,284.2344 Q312.9563,284.2344 311.6281,282.5938 Q310.3156,280.9375 310.3156,277.8125 Q310.3156,274.6875 311.6281,273.0313 Q312.9563,271.375 315.4563,271.375 Q316.1594,271.375 316.8,271.5313 Q317.4563,271.6875 318.0188,271.9844 L318.0188,274.7031 Q317.3938,274.125 316.8,273.8594 Q316.2063,273.5781 315.5813,273.5781 Q314.2375,273.5781 313.55,274.6563 Q312.8625,275.7188 312.8625,277.8125 Q312.8625,279.9063 313.55,280.9844 Q314.2375,282.0469 315.5813,282.0469 Q316.2063,282.0469 316.8,281.7813 Q317.3938,281.5 318.0188,280.9219 L318.0188,283.6406 Z "/><text fill="#000000" font-family="sans-serif" font-size="12" lengthAdjust="spacingAndGlyphs" textLength="69" x="329.95" y="282.1543">SupriseBox</text><line style="stroke: #A80036; stroke-width: 1.5;" x1="297" x2="405" y1="294" y2="294"/><line style="stroke: #A80036; stroke-width: 1.5;" x1="297" x2="405" y1="302" y2="302"/><ellipse cx="307" cy="313.9023" fill="#84BE84" rx="3" ry="3" style="stroke: #038048; stroke-width: 1.0;"/><text fill="#000000" font-family="sans-serif" font-size="11" lengthAdjust="spacingAndGlyphs" textLength="84" x="316" y="316.2104">process(State)</text><!--class Person--><rect fill="#FEFECE" filter="url(#f18jih24qgzv0d)" height="48" id="Person" style="stroke: #A80036; stroke-width: 1.5;" width="76" x="168" y="154"/><ellipse cx="183" cy="170" fill="#ADD1B2" rx="11" ry="11" style="stroke: #A80036; stroke-width: 1.0;"/><path d="M185.9688,175.6406 Q185.3906,175.9375 184.75,176.0781 Q184.1094,176.2344 183.4063,176.2344 Q180.9063,176.2344 179.5781,174.5938 Q178.2656,172.9375 178.2656,169.8125 Q178.2656,166.6875 179.5781,165.0313 Q180.9063,163.375 183.4063,163.375 Q184.1094,163.375 184.75,163.5313 Q185.4063,163.6875 185.9688,163.9844 L185.9688,166.7031 Q185.3438,166.125 184.75,165.8594 Q184.1563,165.5781 183.5313,165.5781 Q182.1875,165.5781 181.5,166.6563 Q180.8125,167.7188 180.8125,169.8125 Q180.8125,171.9063 181.5,172.9844 Q182.1875,174.0469 183.5313,174.0469 Q184.1563,174.0469 184.75,173.7813 Q185.3438,173.5 185.9688,172.9219 L185.9688,175.6406 Z "/><text fill="#000000" font-family="sans-serif" font-size="12" lengthAdjust="spacingAndGlyphs" textLength="44" x="197" y="174.1543">Person</text><line style="stroke: #A80036; stroke-width: 1.5;" x1="169" x2="243" y1="186" y2="186"/><line style="stroke: #A80036; stroke-width: 1.5;" x1="169" x2="243" y1="194" y2="194"/><!--link State to Person--><path d="M206,94.32 C206,109.35 206,126.12 206,140.61 " fill="none" id="State-Person" style="stroke: #A80036; stroke-width: 1.0;"/><polygon fill="#A80036" points="206,153.67,210,147.67,206,141.67,202,147.67,206,153.67" style="stroke: #A80036; stroke-width: 1.0;"/><!--link Person to Wall--><path d="M172.31,205.14 C150.44,222.1 121.91,244.24 99.2,261.86 " fill="none" id="Person-Wall" style="stroke: #A80036; stroke-width: 1.0;"/><polygon fill="#A80036" points="176.31,202.04,166.7477,204.3985,172.3602,205.1058,171.6529,210.7182,176.31,202.04" style="stroke: #A80036; stroke-width: 1.0;"/><!--link Person to Banana--><path d="M206,207.04 C206,223.67 206,244.72 206,261.65 " fill="none" id="Person-Banana" style="stroke: #A80036; stroke-width: 1.0;"/><polygon fill="#A80036" points="206,202.04,202,211.04,206,207.04,210,211.04,206,202.04" style="stroke: #A80036; stroke-width: 1.0;"/><!--link Person to SupriseBox--><path d="M239.69,205.14 C261.56,222.1 290.09,244.24 312.8,261.86 " fill="none" id="Person-SupriseBox" style="stroke: #A80036; stroke-width: 1.0;"/><polygon fill="#A80036" points="235.69,202.04,240.3471,210.7182,239.6398,205.1058,245.2523,204.3985,235.69,202.04" style="stroke: #A80036; stroke-width: 1.0;"/><!--
@startuml


class State {
  lives: int
  points: int
  moving: bool
}

class Wall {
  +process(State)
}

class Banana {
  +process(State)
}

class SupriseBox {
  +process(State)
}

State - -* Person

Person <- - Wall
Person <- - Banana
Person <- - SupriseBox


@enduml

PlantUML version 1.2018.13(Mon Nov 26 19:11:51 EET 2018)
(GPL source distribution)
Java Runtime: OpenJDK Runtime Environment
JVM: OpenJDK 64-Bit Server VM
Java Version: 11.0.11+9
Operating System: Linux
OS Version: 5.4.0-1047-azure
Default Encoding: UTF-8
Language: en
Country: null
--></g></svg>