<?xml version="1.0" encoding="UTF-8" standalone="no"?><svg xmlns="http://www.w3.org/2000/svg" xmlns:xlink="http://www.w3.org/1999/xlink" contentScriptType="application/ecmascript" contentStyleType="text/css" height="359px" preserveAspectRatio="none" style="width:326px;height:359px;" version="1.1" viewBox="0 0 326 359" width="326px" zoomAndPan="magnify"><defs><filter height="300%" id="f89zg0j8nvegc" width="300%" x="-1" y="-1"><feGaussianBlur result="blurOut" stdDeviation="2.0"/><feColorMatrix in="blurOut" result="blurOut2" type="matrix" values="0 0 0 0 0 0 0 0 0 0 0 0 0 0 0 0 0 0 .4 0"/><feOffset dx="4.0" dy="4.0" in="blurOut2" result="blurOut3"/><feBlend in="SourceGraphic" in2="blurOut3" mode="normal"/></filter></defs><g><!--class State--><rect fill="#FEFECE" filter="url(#f89zg0j8nvegc)" height="86.4141" id="State" style="stroke: #A80036; stroke-width: 1.5;" width="85" x="96" y="8"/><ellipse cx="119.55" cy="24" fill="#ADD1B2" rx="11" ry="11" style="stroke: #A80036; stroke-width: 1.0;"/><path d="M122.5188,29.6406 Q121.9406,29.9375 121.3,30.0781 Q120.6594,30.2344 119.9563,30.2344 Q117.4563,30.2344 116.1281,28.5938 Q114.8156,26.9375 114.8156,23.8125 Q114.8156,20.6875 116.1281,19.0313 Q117.4563,17.375 119.9563,17.375 Q120.6594,17.375 121.3,17.5313 Q121.9563,17.6875 122.5188,17.9844 L122.5188,20.7031 Q121.8938,20.125 121.3,19.8594 Q120.7063,19.5781 120.0813,19.5781 Q118.7375,19.5781 118.05,20.6563 Q117.3625,21.7188 117.3625,23.8125 Q117.3625,25.9063 118.05,26.9844 Q118.7375,28.0469 120.0813,28.0469 Q120.7063,28.0469 121.3,27.7813 Q121.8938,27.5 122.5188,26.9219 L122.5188,29.6406 Z "/><text fill="#000000" font-family="sans-serif" font-size="12" lengthAdjust="spacingAndGlyphs" textLength="34" x="135.45" y="28.1543">State</text><line style="stroke: #A80036; stroke-width: 1.5;" x1="97" x2="180" y1="40" y2="40"/><text fill="#000000" font-family="sans-serif" font-size="11" lengthAdjust="spacingAndGlyphs" textLength="48" x="102" y="54.2104">lives: int</text><text fill="#000000" font-family="sans-serif" font-size="11" lengthAdjust="spacingAndGlyphs" textLength="57" x="102" y="67.0151">points: int</text><text fill="#000000" font-family="sans-serif" font-size="11" lengthAdjust="spacingAndGlyphs" textLength="73" x="102" y="79.8198">moving: bool</text><line style="stroke: #A80036; stroke-width: 1.5;" x1="97" x2="180" y1="86.4141" y2="86.4141"/><!--class Person--><rect fill="#FEFECE" filter="url(#f89zg0j8nvegc)" height="86.4141" id="Person" style="stroke: #A80036; stroke-width: 1.5;" width="145" x="66" y="154"/><ellipse cx="112.25" cy="170" fill="#ADD1B2" rx="11" ry="11" style="stroke: #A80036; stroke-width: 1.0;"/><path d="M115.2188,175.6406 Q114.6406,175.9375 114,176.0781 Q113.3594,176.2344 112.6563,176.2344 Q110.1563,176.2344 108.8281,174.5938 Q107.5156,172.9375 107.5156,169.8125 Q107.5156,166.6875 108.8281,165.0313 Q110.1563,163.375 112.6563,163.375 Q113.3594,163.375 114,163.5313 Q114.6563,163.6875 115.2188,163.9844 L115.2188,166.7031 Q114.5938,166.125 114,165.8594 Q113.4063,165.5781 112.7813,165.5781 Q111.4375,165.5781 110.75,166.6563 Q110.0625,167.7188 110.0625,169.8125 Q110.0625,171.9063 110.75,172.9844 Q111.4375,174.0469 112.7813,174.0469 Q113.4063,174.0469 114,173.7813 Q114.5938,173.5 115.2188,172.9219 L115.2188,175.6406 Z "/><text fill="#000000" font-family="sans-serif" font-size="12" lengthAdjust="spacingAndGlyphs" textLength="44" x="132.75" y="174.1543">Person</text><line style="stroke: #A80036; stroke-width: 1.5;" x1="67" x2="210" y1="186" y2="186"/><line style="stroke: #A80036; stroke-width: 1.5;" x1="67" x2="210" y1="194" y2="194"/><ellipse cx="77" cy="205.9023" fill="#84BE84" rx="3" ry="3" style="stroke: #038048; stroke-width: 1.0;"/><text fill="#000000" font-family="sans-serif" font-size="11" lengthAdjust="spacingAndGlyphs" textLength="76" x="86" y="208.2104">process(Wall)</text><ellipse cx="77" cy="218.707" fill="#84BE84" rx="3" ry="3" style="stroke: #038048; stroke-width: 1.0;"/><text fill="#000000" font-family="sans-serif" font-size="11" lengthAdjust="spacingAndGlyphs" textLength="97" x="86" y="221.0151">process(Banana)</text><ellipse cx="77" cy="231.5117" fill="#84BE84" rx="3" ry="3" style="stroke: #038048; stroke-width: 1.0;"/><text fill="#000000" font-family="sans-serif" font-size="11" lengthAdjust="spacingAndGlyphs" textLength="119" x="86" y="233.8198">process(SupriseBox)</text><!--class Wall--><rect fill="#FEFECE" filter="url(#f89zg0j8nvegc)" height="48" id="Wall" style="stroke: #A80036; stroke-width: 1.5;" width="57" x="6" y="300"/><ellipse cx="21" cy="316" fill="#ADD1B2" rx="11" ry="11" style="stroke: #A80036; stroke-width: 1.0;"/><path d="M23.9688,321.6406 Q23.3906,321.9375 22.75,322.0781 Q22.1094,322.2344 21.4063,322.2344 Q18.9063,322.2344 17.5781,320.5938 Q16.2656,318.9375 16.2656,315.8125 Q16.2656,312.6875 17.5781,311.0313 Q18.9063,309.375 21.4063,309.375 Q22.1094,309.375 22.75,309.5313 Q23.4063,309.6875 23.9688,309.9844 L23.9688,312.7031 Q23.3438,312.125 22.75,311.8594 Q22.1563,311.5781 21.5313,311.5781 Q20.1875,311.5781 19.5,312.6563 Q18.8125,313.7188 18.8125,315.8125 Q18.8125,317.9063 19.5,318.9844 Q20.1875,320.0469 21.5313,320.0469 Q22.1563,320.0469 22.75,319.7813 Q23.3438,319.5 23.9688,318.9219 L23.9688,321.6406 Z "/><text fill="#000000" font-family="sans-serif" font-size="12" lengthAdjust="spacingAndGlyphs" textLength="25" x="35" y="320.1543">Wall</text><line style="stroke: #A80036; stroke-width: 1.5;" x1="7" x2="62" y1="332" y2="332"/><line style="stroke: #A80036; stroke-width: 1.5;" x1="7" x2="62" y1="340" y2="340"/><!--class Banana--><rect fill="#FEFECE" filter="url(#f89zg0j8nvegc)" height="48" id="Banana" style="stroke: #A80036; stroke-width: 1.5;" width="80" x="98.5" y="300"/><ellipse cx="113.5" cy="316" fill="#ADD1B2" rx="11" ry="11" style="stroke: #A80036; stroke-width: 1.0;"/><path d="M116.4688,321.6406 Q115.8906,321.9375 115.25,322.0781 Q114.6094,322.2344 113.9063,322.2344 Q111.4063,322.2344 110.0781,320.5938 Q108.7656,318.9375 108.7656,315.8125 Q108.7656,312.6875 110.0781,311.0313 Q111.4063,309.375 113.9063,309.375 Q114.6094,309.375 115.25,309.5313 Q115.9063,309.6875 116.4688,309.9844 L116.4688,312.7031 Q115.8438,312.125 115.25,311.8594 Q114.6563,311.5781 114.0313,311.5781 Q112.6875,311.5781 112,312.6563 Q111.3125,313.7188 111.3125,315.8125 Q111.3125,317.9063 112,318.9844 Q112.6875,320.0469 114.0313,320.0469 Q114.6563,320.0469 115.25,319.7813 Q115.8438,319.5 116.4688,318.9219 L116.4688,321.6406 Z "/><text fill="#000000" font-family="sans-serif" font-size="12" lengthAdjust="spacingAndGlyphs" textLength="48" x="127.5" y="320.1543">Banana</text><line style="stroke: #A80036; stroke-width: 1.5;" x1="99.5" x2="177.5" y1="332" y2="332"/><line style="stroke: #A80036; stroke-width: 1.5;" x1="99.5" x2="177.5" y1="340" y2="340"/><!--class SupriseBox--><rect fill="#FEFECE" filter="url(#f89zg0j8nvegc)" height="48" id="SupriseBox" style="stroke: #A80036; stroke-width: 1.5;" width="101" x="214" y="300"/><ellipse cx="229" cy="316" fill="#ADD1B2" rx="11" ry="11" style="stroke: #A80036; stroke-width: 1.0;"/><path d="M231.9688,321.6406 Q231.3906,321.9375 230.75,322.0781 Q230.1094,322.2344 229.4063,322.2344 Q226.9063,322.2344 225.5781,320.5938 Q224.2656,318.9375 224.2656,315.8125 Q224.2656,312.6875 225.5781,311.0313 Q226.9063,309.375 229.4063,309.375 Q230.1094,309.375 230.75,309.5313 Q231.4063,309.6875 231.9688,309.9844 L231.9688,312.7031 Q231.3438,312.125 230.75,311.8594 Q230.1563,311.5781 229.5313,311.5781 Q228.1875,311.5781 227.5,312.6563 Q226.8125,313.7188 226.8125,315.8125 Q226.8125,317.9063 227.5,318.9844 Q228.1875,320.0469 229.5313,320.0469 Q230.1563,320.0469 230.75,319.7813 Q231.3438,319.5 231.9688,318.9219 L231.9688,321.6406 Z "/><text fill="#000000" font-family="sans-serif" font-size="12" lengthAdjust="spacingAndGlyphs" textLength="69" x="243" y="320.1543">SupriseBox</text><line style="stroke: #A80036; stroke-width: 1.5;" x1="215" x2="314" y1="332" y2="332"/><line style="stroke: #A80036; stroke-width: 1.5;" x1="215" x2="314" y1="340" y2="340"/><!--link State to Person--><path d="M138.5,94.04 C138.5,108.55 138.5,125.04 138.5,140.46 " fill="none" id="State-Person" style="stroke: #A80036; stroke-width: 1.0;"/><polygon fill="#A80036" points="138.5,153.66,142.5,147.66,138.5,141.66,134.5,147.66,138.5,153.66" style="stroke: #A80036; stroke-width: 1.0;"/><!--link Person to Wall--><path d="M103.29,240.32 C88.08,258.6 70.72,279.46 57.25,295.66 " fill="none" id="Person-Wall" style="stroke: #A80036; stroke-width: 1.0;"/><polygon fill="#A80036" points="53.91,299.67,62.743,295.3135,57.1095,295.8277,56.5953,290.1943,53.91,299.67" style="stroke: #A80036; stroke-width: 1.0;"/><!--link Person to Banana--><path d="M138.5,240.32 C138.5,258.14 138.5,278.41 138.5,294.42 " fill="none" id="Person-Banana" style="stroke: #A80036; stroke-width: 1.0;"/><polygon fill="#A80036" points="138.5,299.67,142.5,290.67,138.5,294.67,134.5,290.67,138.5,299.67" style="stroke: #A80036; stroke-width: 1.0;"/><!--link Person to SupriseBox--><path d="M181.16,240.32 C199.74,258.76 220.97,279.82 237.35,296.07 " fill="none" id="Person-SupriseBox" style="stroke: #A80036; stroke-width: 1.0;"/><polygon fill="#A80036" points="240.99,299.67,237.4359,290.4848,237.4473,296.1416,231.7905,296.153,240.99,299.67" style="stroke: #A80036; stroke-width: 1.0;"/><!--
@startuml


class State {
  lives: int
  points: int
  moving: bool
}

class Person {
  +process(Wall)
  +process(Banana)
  +process(SupriseBox)
}


State - -* Person

Person - -> Wall
Person - -> Banana
Person - -> SupriseBox


@enduml

PlantUML version 1.2018.13(Mon Nov 26 19:11:51 EET 2018)
(GPL source distribution)
Java Runtime: OpenJDK Runtime Environment
JVM: OpenJDK 64-Bit Server VM
Java Version: 11.0.11+9
Operating System: Linux
OS Version: 5.4.0-1047-azure
Default Encoding: UTF-8
Language: en
Country: null
--></g></svg>